<svg xmlns="http://www.w3.org/2000/svg" viewBox="0 0 16.333 21.787">
  <g id="noun_bag_836849" transform="translate(-20.5 -10.7)">
    <path id="Path_1" data-name="Path 1" d="M36.418,16.707H33.234V15.323a4.568,4.568,0,1,0-9.135,0v1.384H20.915a.426.426,0,0,0-.415.415V30.964a1.536,1.536,0,0,0,1.523,1.523H35.31a1.536,1.536,0,0,0,1.523-1.523V17.122A.408.408,0,0,0,36.418,16.707ZM24.929,15.3a3.738,3.738,0,1,1,7.474,0V16.68H24.929ZM35.31,31.656H22.023a.685.685,0,0,1-.692-.692V17.538H24.1v4.1a.415.415,0,1,0,.83,0v-4.1H32.4v4.1a.415.415,0,0,0,.83,0v-4.1H36V30.964A.685.685,0,0,1,35.31,31.656Z"/>
  </g>
</svg>
